<svg width="81" height="42" viewBox="0 0 81 42" fill="none" xmlns="http://www.w3.org/2000/svg">
<path fill-rule="evenodd" clip-rule="evenodd" d="M21.1712 2.33354C11.1349 2.33354 2.93353 10.1265 2.38196 19.9448L0.00408936 20.5748C0.232375 9.17308 9.62174 0 21.1712 0C31.8391 0 40.6644 7.82649 42.1291 18.0067L39.8374 18.6137C38.6563 9.43145 30.7495 2.33354 21.1712 2.33354ZM39.9884 21.2285C39.865 31.4324 31.4875 39.6665 21.1712 39.6665C11.0102 39.6665 2.73 31.6785 2.36496 21.6882L0.0399996 22.3041C0.718914 33.2947 9.92008 42 21.1712 42C32.8637 42 42.3424 32.5979 42.3424 21C42.3424 20.8683 42.3412 20.7369 42.3388 20.6058L39.9884 21.2285Z" fill="white"/>
<path fill-rule="evenodd" clip-rule="evenodd" d="M18.8825 7.31084C19.5298 7.05296 19.987 6.42458 19.987 5.69025C19.987 4.72614 19.199 3.94458 18.2271 3.94458C17.2551 3.94458 16.4672 4.72614 16.4672 5.69025C16.4672 6.22554 16.7101 6.70457 17.0925 7.02482L16.8362 8.15588L14.1545 7.75079L11.7427 4.41422L10.272 5.46017L12.6427 8.73989L12.5472 9.31382L13.1261 9.4086L13.1282 9.4114L13.3274 9.44157L14.3096 9.60229L14.3116 9.59025L20.414 10.5121L22.679 13.5433L20.4172 15.54H23.1393L24.4911 14.3465L26.6058 12.4883L32.9701 13.4705L32.6189 15.54H34.4541L34.7583 13.7464L38.6602 14.3486L39.3213 14.4625L38.9384 12.5749L26.9325 10.7221L26.9332 10.718L25.1708 10.4296L24.9913 11.5089L24.0376 12.347L21.4237 8.84895L18.6296 8.42685L18.8825 7.31084ZM30.513 28.35H26.3948L32.3651 36.3829L33.8217 35.3178L29.3162 29.2559L30.513 28.35ZM23.9927 28.35H15.1051L22.6585 29.5747L25.3237 33.0338L21.9116 34.8302C21.656 34.6865 21.3605 34.6046 21.0457 34.6046C20.0737 34.6046 19.2857 35.3862 19.2857 36.3503C19.2857 37.3145 20.0737 38.0959 21.0457 38.0959C22.0036 38.0959 22.7828 37.3367 22.805 36.3919L26.4375 34.4797L29.3251 38.2277L30.763 37.1378L23.9927 28.35ZM14.1818 28.35H12.3356L11.2298 33.8379L15.5563 34.5303L14.8281 38.8647L16.6132 39.1597L17.6403 33.0454L13.3728 32.3626L14.1818 28.35ZM6.25727 28.35H9.77457C9.73965 29.2836 8.96566 30.0298 8.01591 30.0298C7.0662 30.0298 6.29218 29.2836 6.25727 28.35ZM4.41136 15.54H6.60462L4.36144 12.2905L2.86827 13.3046L4.41136 15.54ZM11.5092 15.54H13.3551L13.4983 14.8339L11.4161 11.9941L11.3601 12.0345C11.4704 11.8064 11.5322 11.5507 11.5322 11.2808C11.5322 10.3167 10.7442 9.53516 9.77224 9.53516C8.80029 9.53516 8.01238 10.3167 8.01238 11.2808C8.01238 12.2449 8.80029 13.0265 9.77224 13.0265C9.85163 13.0265 9.92975 13.0213 10.0063 13.0112L9.95259 13.0499L11.5675 15.2524L11.5092 15.54ZM14.917 15.54H16.7645L16.8849 14.9429L16.9251 14.7418C17.5817 14.4884 18.047 13.8553 18.047 13.1144C18.047 12.1503 17.2591 11.3687 16.2872 11.3687C15.3152 11.3687 14.5272 12.1503 14.5272 13.1144C14.5272 13.6434 14.7644 14.1174 15.1391 14.4375L14.917 15.54ZM28.6577 15.54C28.3444 15.2549 27.9267 15.0808 27.4681 15.0808C27.0094 15.0808 26.5917 15.2549 26.2786 15.54H28.6577ZM23.818 8.39794C24.3522 8.39794 24.8308 8.1619 25.1535 7.78922L32.2031 8.77748L32.5626 4.6711L30.7596 4.5158L30.5653 6.73506L25.4586 6.01913C25.2031 5.36802 24.565 4.90663 23.818 4.90663C22.846 4.90663 22.0582 5.68819 22.0582 6.65228C22.0582 7.61639 22.846 8.39794 23.818 8.39794ZM40.8677 19.5648C42.0351 19.5648 42.9815 18.6261 42.9815 17.4682C42.9815 16.3103 42.0351 15.3716 40.8677 15.3716C39.7005 15.3716 38.7541 16.3103 38.7541 17.4682C38.7541 18.6261 39.7005 19.5648 40.8677 19.5648Z" fill="white"/>
<path d="M10.2931 24.3547C10.2931 24.7852 10.2055 25.1707 10.0306 25.5111C9.85572 25.8518 9.62249 26.1409 9.33101 26.3786C9.04596 26.6164 8.71559 26.7997 8.33984 26.928C7.96408 27.0565 7.57539 27.1208 7.17376 27.1208C6.90815 27.1208 6.64256 27.0887 6.37695 27.0244C6.11133 26.9666 5.85869 26.9024 5.61899 26.8318C5.38579 26.7611 5.172 26.6968 4.97765 26.639C4.78332 26.5748 4.6246 26.5427 4.50151 26.5427C4.42377 26.5427 4.35574 26.5618 4.29744 26.6004C4.24561 26.6325 4.20026 26.6775 4.16141 26.7354C4.12902 26.7932 4.10311 26.8543 4.08367 26.9186C4.07072 26.9891 4.05776 27.0565 4.0448 27.1208H3.78243V23.7184H4.0448C4.09663 24.1361 4.19702 24.5185 4.34602 24.8654C4.49503 25.2125 4.69262 25.5111 4.93878 25.7619C5.18496 26.0061 5.47971 26.1989 5.82306 26.3402C6.17288 26.475 6.56806 26.5427 7.00857 26.5427C7.24828 26.5427 7.48469 26.5105 7.71792 26.4463C7.95765 26.3755 8.16819 26.2726 8.34959 26.1378C8.53744 26.0027 8.68965 25.8358 8.8063 25.6365C8.92288 25.4309 8.9812 25.1932 8.9812 24.9233C8.9812 24.6405 8.90344 24.3868 8.74797 24.1619C8.59894 23.9305 8.40142 23.7184 8.15518 23.5256C7.90901 23.3265 7.62721 23.14 7.30978 22.9666C6.99237 22.7866 6.66846 22.6068 6.33807 22.4269C6.01418 22.2469 5.69349 22.0573 5.37607 21.8582C5.05863 21.6589 4.77684 21.4405 4.53066 21.2028C4.28448 20.9585 4.08367 20.6919 3.92819 20.4027C3.77919 20.1071 3.70468 19.773 3.70468 19.4003C3.70468 18.9955 3.78243 18.6324 3.93791 18.3111C4.09987 17.9898 4.31364 17.72 4.57925 17.5015C4.84484 17.2766 5.14933 17.1063 5.49267 16.9907C5.8425 16.875 6.20851 16.8171 6.59074 16.8171C6.81746 16.8171 7.04096 16.846 7.26121 16.9039C7.48794 16.9617 7.70173 17.0259 7.90258 17.0966C8.10986 17.1609 8.2977 17.2219 8.46617 17.2798C8.63457 17.3376 8.77385 17.3666 8.88399 17.3666C8.96176 17.3666 9.02652 17.3472 9.07834 17.3087C9.13016 17.2702 9.17555 17.2252 9.21436 17.1738C9.25324 17.116 9.28244 17.0549 9.30181 16.9907C9.32776 16.9264 9.3472 16.8685 9.36014 16.8171H9.64194V20.21H9.36014C9.32776 19.8244 9.24356 19.4613 9.10754 19.1208C8.97145 18.7738 8.78686 18.475 8.55363 18.2244C8.3269 17.9674 8.05154 17.7649 7.72767 17.6172C7.40374 17.463 7.03124 17.3858 6.61017 17.3858C6.3899 17.3858 6.17611 17.4212 5.96883 17.4919C5.76152 17.5625 5.57364 17.6653 5.40523 17.8003C5.24327 17.9288 5.11046 18.0862 5.00681 18.2726C4.90963 18.4525 4.86104 18.6581 4.86104 18.8895C4.86104 19.1593 4.93878 19.4035 5.09426 19.622C5.24974 19.8404 5.4538 20.0429 5.70645 20.2292C5.96559 20.4156 6.2571 20.5955 6.58102 20.769C6.90492 20.9361 7.23534 21.1095 7.57214 21.2895C7.91551 21.463 8.24913 21.6492 8.57307 21.8485C8.897 22.0478 9.18523 22.2694 9.4379 22.5136C9.69701 22.7578 9.90429 23.0308 10.0598 23.3328C10.2153 23.6285 10.2931 23.9691 10.2931 24.3547Z" fill="white"/>
<path d="M20.5453 21.9063C20.5453 22.6068 20.4287 23.2719 20.1954 23.9015C19.9622 24.5313 19.6318 25.0871 19.2043 25.5691C18.7832 26.0445 18.2714 26.4236 17.6689 26.7065C17.073 26.9828 16.4057 27.1208 15.6672 27.1208C14.9287 27.1208 14.2582 26.9828 13.6557 26.7065C13.0597 26.4301 12.5479 26.0573 12.1204 25.5884C11.6993 25.1128 11.3754 24.5603 11.1486 23.9305C10.9219 23.3007 10.8086 22.6325 10.8086 21.9256C10.8086 21.2124 10.9284 20.5473 11.1681 19.9305C11.4142 19.3071 11.7576 18.7673 12.1981 18.3111C12.6386 17.8485 13.1634 17.4854 13.7723 17.2219C14.3813 16.9521 15.0517 16.8171 15.7838 16.8171C16.5029 16.8171 17.1539 16.9553 17.737 17.2316C18.3201 17.5015 18.8188 17.871 19.2335 18.3401C19.6545 18.8027 19.9785 19.3425 20.2052 19.9594C20.4319 20.5762 20.5453 21.2252 20.5453 21.9063ZM18.8739 22.0027C18.8739 21.6429 18.8545 21.2767 18.8156 20.9039C18.7832 20.5313 18.7217 20.1714 18.631 19.8244C18.5403 19.4774 18.4172 19.1529 18.2617 18.8509C18.1063 18.5489 17.9087 18.2855 17.6689 18.0605C17.4293 17.8356 17.141 17.6589 16.8041 17.5304C16.4737 17.3955 16.0818 17.328 15.6283 17.328C15.2137 17.328 14.8477 17.3955 14.5303 17.5304C14.2193 17.6589 13.9472 17.8356 13.714 18.0605C13.4808 18.2855 13.2864 18.5489 13.131 18.8509C12.9755 19.1529 12.8492 19.4742 12.752 19.8147C12.6613 20.1489 12.5965 20.4959 12.5577 20.8557C12.5188 21.2091 12.4994 21.5528 12.4994 21.8872C12.4994 22.2148 12.5188 22.5585 12.5577 22.9185C12.5965 23.2782 12.6646 23.6316 12.7617 23.9788C12.8589 24.3257 12.9852 24.6566 13.1407 24.9714C13.2962 25.2862 13.4905 25.5626 13.7238 25.8003C13.9569 26.0382 14.2323 26.2277 14.5497 26.369C14.8672 26.5105 15.2332 26.5811 15.6478 26.5811C16.0818 26.5811 16.4607 26.5168 16.7847 26.3883C17.115 26.2598 17.4001 26.0863 17.6398 25.8679C17.8795 25.643 18.0771 25.3826 18.2325 25.0871C18.3945 24.7852 18.5208 24.467 18.6116 24.1329C18.7087 23.7923 18.7768 23.4422 18.8156 23.0823C18.8545 22.716 18.8739 22.3561 18.8739 22.0027Z" fill="white"/>
<path d="M31.0119 17.2896C30.7138 17.2896 30.4709 17.3152 30.2829 17.3666C30.0952 17.4181 29.9495 17.5048 29.8457 17.6269C29.742 17.749 29.6709 17.9096 29.632 18.1088C29.5932 18.3016 29.5737 18.5394 29.5737 18.8221V22.8319C29.5737 23.5066 29.5089 24.1106 29.3794 24.644C29.2563 25.1709 29.0457 25.6173 28.7478 25.9836C28.4563 26.35 28.0642 26.6327 27.572 26.832C27.0795 27.0245 26.4675 27.1209 25.7353 27.1209C24.9255 27.1209 24.2648 27.0214 23.7531 26.8223C23.2477 26.623 22.8525 26.3338 22.5675 25.9548C22.2825 25.5692 22.0882 25.1001 21.9844 24.5476C21.8872 23.9883 21.8387 23.3523 21.8387 22.6391V18.7642C21.8387 18.4944 21.8259 18.2663 21.7998 18.0799C21.774 17.8936 21.7156 17.7426 21.6249 17.6269C21.5407 17.5048 21.4111 17.4181 21.2363 17.3666C21.0678 17.3152 20.8378 17.2896 20.5463 17.2896V17.0293H24.5402V17.2896C24.255 17.2896 24.0283 17.3152 23.86 17.3666C23.6915 17.4181 23.5619 17.5048 23.4713 17.6269C23.3805 17.7426 23.3191 17.8936 23.2867 18.0799C23.2607 18.2663 23.2477 18.4944 23.2477 18.7642V23.0727C23.2477 23.5291 23.2769 23.9659 23.3352 24.3836C23.3999 24.795 23.523 25.1578 23.7044 25.4728C23.8924 25.7813 24.1547 26.0287 24.4915 26.215C24.8349 26.3949 25.2818 26.4848 25.8326 26.4848C26.2794 26.4848 26.7071 26.4143 27.1153 26.2727C27.5233 26.1314 27.8925 25.9065 28.223 25.5982C28.3849 25.4504 28.5113 25.2576 28.602 25.0199C28.6925 24.7756 28.7608 24.5217 28.806 24.2584C28.8513 23.9883 28.8774 23.7219 28.8837 23.4583C28.8966 23.1885 28.9032 22.9539 28.9032 22.7546V18.7642C28.9032 18.4558 28.8869 18.2084 28.8545 18.0221C28.8287 17.8293 28.7639 17.6783 28.6602 17.5691C28.563 17.4598 28.4205 17.3859 28.2327 17.3474C28.0449 17.3088 27.7953 17.2896 27.4845 17.2896V17.0293H31.0119V17.2896Z" fill="white"/>
<path d="M38.3492 26.88H30.6338V26.6005C30.8669 26.6005 31.0741 26.5877 31.2556 26.5619C31.437 26.5298 31.5861 26.472 31.7025 26.3884C31.8257 26.2986 31.9195 26.1732 31.9842 26.0125C32.0491 25.8519 32.0815 25.6398 32.0815 25.3764V18.533C32.0815 18.2759 32.0491 18.067 31.9842 17.9065C31.9195 17.7458 31.8257 17.6237 31.7025 17.5402C31.5861 17.4502 31.437 17.3892 31.2556 17.357C31.0741 17.3249 30.8669 17.3088 30.6338 17.3088V17.0293H34.9481V17.3088C34.7084 17.3088 34.4979 17.3249 34.3165 17.357C34.1351 17.3892 33.9828 17.4502 33.8598 17.5402C33.7366 17.6237 33.6429 17.7458 33.578 17.9065C33.5133 18.067 33.4809 18.2759 33.4809 18.533V25.0199C33.4809 25.2639 33.5003 25.4663 33.5391 25.627C33.578 25.7813 33.6429 25.9065 33.7334 26.0029C33.8306 26.093 33.9602 26.1572 34.1221 26.1957C34.2841 26.2278 34.4882 26.244 34.7344 26.244H35.7255C36.205 26.244 36.6066 26.2181 36.9306 26.1669C37.2544 26.1089 37.5328 26.0062 37.7661 25.8584C38.0058 25.704 38.2165 25.4922 38.3977 25.2221C38.5791 24.9459 38.7637 24.5892 38.9517 24.1524L39.2043 24.1908L38.3492 26.88Z" fill="white"/>
<path d="M55.8369 22.6706L55.4495 26.2499H46.3058V25.9716H46.6476C46.9463 25.9716 47.1868 25.919 47.369 25.8138C47.5007 25.7436 47.602 25.6233 47.6728 25.4528C47.7285 25.3325 47.7564 25.0167 47.7564 24.5054V17.798C47.7564 17.2766 47.7285 16.9507 47.6728 16.8204C47.6171 16.6901 47.5032 16.5773 47.3311 16.482C47.164 16.3818 46.9362 16.3317 46.6476 16.3317H46.3058V16.0534H51.7966V16.3317H51.3485C51.0498 16.3317 50.8093 16.3842 50.627 16.4895C50.4954 16.5597 50.3916 16.6801 50.3157 16.8505C50.26 16.9708 50.2321 17.2866 50.2321 17.798V24.2948C50.2321 24.8162 50.2625 25.1496 50.3233 25.2949C50.3841 25.4353 50.503 25.5406 50.6802 25.6107C50.8068 25.6559 51.1131 25.6784 51.5991 25.6784H52.4573C53.0041 25.6784 53.4598 25.5831 53.8243 25.3927C54.1888 25.2022 54.5027 24.9014 54.766 24.4903C55.0344 24.0793 55.2875 23.4727 55.5254 22.6706H55.8369ZM63.8033 22.7759L66.5981 16.0534H70.7903V16.3317H70.4561C70.1523 16.3317 69.9092 16.3842 69.727 16.4895C69.6004 16.5597 69.4992 16.6775 69.4232 16.8429C69.3676 16.9633 69.3397 17.2766 69.3397 17.7829V24.5054C69.3397 25.0267 69.3676 25.3526 69.4232 25.4829C69.4789 25.6132 69.5929 25.7285 69.7649 25.8288C69.9371 25.924 70.1675 25.9716 70.4561 25.9716H70.7903V26.2499H65.4134V25.9716H65.7475C66.0513 25.9716 66.2944 25.919 66.4766 25.8138C66.6032 25.7436 66.7044 25.6233 66.7804 25.4528C66.836 25.3325 66.8639 25.0167 66.8639 24.5054V16.9482L62.9148 26.2499H62.7326L58.7227 17.0159V24.1971C58.7227 24.6983 58.7354 25.0067 58.7607 25.122C58.8265 25.3726 58.9682 25.5782 59.186 25.7385C59.4087 25.8939 59.7555 25.9716 60.2264 25.9716V26.2499H56.7026V25.9716H56.8089C57.0367 25.9767 57.2494 25.9416 57.4468 25.8664C57.6443 25.7862 57.7937 25.6809 57.8949 25.5506C57.9962 25.4203 58.0746 25.2373 58.1303 25.0017C58.1404 24.9465 58.1455 24.6909 58.1455 24.2347V17.7829C58.1455 17.2666 58.1177 16.9457 58.062 16.8204C58.0063 16.6901 57.8924 16.5773 57.7202 16.482C57.5481 16.3818 57.3177 16.3317 57.0292 16.3317H56.7026V16.0534H60.9099L63.8033 22.7759ZM78.3846 15.8203L78.468 19.2192H78.157C78.0099 18.3669 77.6479 17.6827 77.0711 17.1663C76.4984 16.6449 75.8784 16.3842 75.2103 16.3842C74.6935 16.3842 74.2835 16.5221 73.9802 16.7979C73.6811 17.0686 73.532 17.3819 73.532 17.7378C73.532 17.9634 73.585 18.1639 73.691 18.3393C73.8381 18.575 74.0735 18.8081 74.3973 19.0386C74.6355 19.2041 75.1849 19.4973 76.0452 19.9185C77.2506 20.505 78.0629 21.0589 78.4836 21.5803C78.8986 22.1016 79.1064 22.6982 79.1064 23.3699C79.1064 24.2221 78.7692 24.9565 78.0962 25.5731C77.4281 26.1847 76.5769 26.4906 75.544 26.4906C75.2202 26.4906 74.9141 26.4579 74.6256 26.3928C74.3365 26.3276 73.9745 26.2047 73.5397 26.0243C73.2965 25.924 73.0965 25.8739 72.9395 25.8739C72.808 25.8739 72.6688 25.924 72.5217 26.0243C72.3747 26.1246 72.2559 26.2775 72.1647 26.483H71.884V22.633H72.1647C72.3874 23.7158 72.8151 24.5429 73.4485 25.1144C74.0862 25.6809 74.772 25.9642 75.5065 25.9642C76.0735 25.9642 76.5239 25.8113 76.8583 25.5054C77.1976 25.1997 77.3673 24.8437 77.3673 24.4377C77.3673 24.1971 77.3008 23.964 77.1693 23.7384C77.0428 23.5128 76.8484 23.2997 76.5847 23.0992C76.3217 22.8937 75.8558 22.628 75.1877 22.3022C74.2509 21.846 73.5772 21.4574 73.1672 21.1366C72.7571 20.8158 72.4404 20.4573 72.2177 20.0613C72 19.6653 71.8911 19.2292 71.8911 18.7529C71.8911 17.9408 72.193 17.249 72.7953 16.6775C73.3976 16.1061 74.1569 15.8203 75.0732 15.8203C75.4076 15.8203 75.7313 15.8604 76.0452 15.9406C76.2835 16.0008 76.5719 16.1135 76.9113 16.279C77.2556 16.4394 77.4959 16.5196 77.6331 16.5196C77.7646 16.5196 77.8685 16.4795 77.9442 16.3993C78.0198 16.3191 78.0912 16.1261 78.157 15.8203H78.3846Z" fill="white"/>
</svg>
