<svg width="24" height="24" viewBox="0 0 24 24" fill="none" xmlns="http://www.w3.org/2000/svg">
<g id="courses/lined" clip-path="url(#clip0_330_16387)">
<path id="Vector" d="M23.3187 5.72593C23.2736 5.72437 22.3467 5.69308 20.986 5.72315V2.93341C20.986 2.52216 20.6349 2.196 20.2214 2.22997C17.5084 2.45647 14.0567 3.65529 12 5.84188C9.94334 3.65529 6.49162 2.45647 3.77859 2.22997C3.36588 2.19637 3.01398 2.52108 3.01398 2.93341V5.79859C2.24089 5.76941 1.50965 5.74884 0.726824 5.72583C0.332 5.71336 0 6.03139 0 6.43139V19.2864C0 19.6579 0.287859 19.9658 0.658494 19.9907C3.4664 20.1797 8.16988 20.201 11.7231 21.7165C12.0398 21.8517 12.324 21.6964 12.277 21.7165C15.8301 20.201 20.5328 20.1798 23.3416 19.9907C23.7122 19.9658 24.0001 19.6579 24.0001 19.2864V6.43139C24 6.0511 23.6988 5.7392 23.3187 5.72593ZM19.5743 3.72734V15.8256C17.5387 16.2809 14.959 17.2526 12.7059 19.3129C12.7059 18.6915 12.7059 7.51548 12.7059 7.17939C14.2504 5.25233 17.1753 4.09082 19.5743 3.72734ZM4.42574 3.72734C6.82466 4.09082 9.74965 5.25233 11.2941 7.17939V19.3129C9.04104 17.2526 6.46132 16.2809 4.42574 15.8256V3.72734ZM1.41176 18.6222V7.15835C1.91722 7.17331 2.45784 7.19021 3.01398 7.21143V16.4009C3.01398 16.7406 3.25586 17.032 3.58965 17.0947C5.20146 17.3972 7.29746 18.0539 9.25097 19.4678C6.46391 18.8427 3.54664 18.7423 1.41176 18.6222ZM22.5882 18.6222C20.4568 18.7421 17.5372 18.8424 14.749 19.4678C16.7025 18.0539 18.7985 17.3972 20.4103 17.0947C20.7441 17.032 20.986 16.7406 20.986 16.4009V7.13539C21.6357 7.12084 22.189 7.12066 22.5882 7.12428V18.6222H22.5882Z" fill="#898FA7"/>
<path id="Vector_2" d="M9.46379 8.80542C8.91706 8.42453 7.97452 7.957 6.96864 7.78702C6.58441 7.7218 6.21998 7.98105 6.15499 8.36542C6.09005 8.7498 6.34902 9.11408 6.73344 9.17902C7.51005 9.31027 8.2549 9.68378 8.65678 9.96378C8.97655 10.1866 9.41655 10.1081 9.63947 9.78811C9.86229 9.46825 9.78365 9.02825 9.46379 8.80542Z" fill="#898FA7"/>
<path id="Vector_3" d="M9.39311 12.7805C8.8901 12.4734 7.90624 11.9343 6.96864 11.7759C6.58441 11.7108 6.21998 11.9699 6.15499 12.3543C6.09005 12.7387 6.34902 13.103 6.73344 13.1679C7.46384 13.2913 8.32215 13.7806 8.65725 13.9854C8.99038 14.1887 9.42464 14.0832 9.62761 13.7509C9.83081 13.4182 9.72582 12.9838 9.39311 12.7805Z" fill="#898FA7"/>
<path id="Vector_4" d="M15.3431 9.96381C15.745 9.68381 16.4898 9.31031 17.2664 9.17906C17.6508 9.11412 17.9098 8.74984 17.8449 8.36546C17.7799 7.98104 17.4155 7.7217 17.0312 7.78706C16.0253 7.95699 15.0828 8.42457 14.5361 8.80546C14.2162 9.02828 14.1376 9.46828 14.3604 9.78814C14.5834 10.1082 15.0235 10.1865 15.3431 9.96381Z" fill="#898FA7"/>
<path id="Vector_5" d="M17.0313 11.776C16.0937 11.9344 15.1099 12.4734 14.6069 12.7806C14.2742 12.9838 14.1692 13.4182 14.3724 13.7509C14.5756 14.0836 15.01 14.1886 15.3427 13.9854C15.6778 13.7807 16.5361 13.2914 17.2665 13.168C17.6509 13.103 17.9099 12.7388 17.845 12.3544C17.78 11.9699 17.4156 11.7106 17.0313 11.776Z" fill="#898FA7"/>
</g>
<defs>
<clipPath id="clip0_330_16387">
<rect width="24" height="24" fill="white"/>
</clipPath>
</defs>
</svg>
