<svg width="24" height="24" viewBox="0 0 24 24" fill="none" xmlns="http://www.w3.org/2000/svg">
<path fill-rule="evenodd" clip-rule="evenodd" d="M23 12C23 18.0751 18.0751 23 12 23C5.92487 23 1 18.0751 1 12C1 5.92487 5.92487 1 12 1C18.0751 1 23 5.92487 23 12ZM11.9063 15.2089C11.2429 15.2089 10.7058 15.7617 10.7058 16.4251C10.7058 17.0728 11.2271 17.6414 11.9063 17.6414C12.5855 17.6414 13.1225 17.0728 13.1225 16.4251C13.1225 15.7617 12.5697 15.2089 11.9063 15.2089ZM9 8.11664C9 7.2637 9.97931 6 12.1117 6C14.1336 6 15.4762 7.12148 15.4762 8.60625C15.4762 10.091 14.1336 11.1652 13.7071 11.4968C12.8383 12.1761 12.8225 12.6499 12.8225 13.4713C12.8225 13.7715 12.6645 14.1189 11.8906 14.1189C11.243 14.1189 11.0219 13.882 11.0219 13.0606C11.0219 11.7022 11.622 11.0545 12.0802 10.6597C12.1749 10.5793 12.2816 10.4974 12.3929 10.412C12.8937 10.0274 13.486 9.57275 13.486 8.87484C13.486 8.14823 12.8541 7.8007 12.0644 7.8007C11.1318 7.8007 10.8554 8.20822 10.6227 8.55149C10.4533 8.80126 10.307 9.01702 9.94772 9.01702C9.52125 9.01702 9 8.73267 9 8.11664Z" fill="white"/>
</svg>
