<svg width="40" height="40" viewBox="0 0 40 40" fill="none" xmlns="http://www.w3.org/2000/svg">
<g opacity="0.8">
<rect x="0.5" y="0.5" width="39" height="39" rx="19.5" fill="#EDEDF1"/>
<rect x="0.5" y="0.5" width="39" height="39" rx="19.5" stroke="#B0E7F1"/>
<path d="M19.8401 19.8203C22.2327 19.8203 24.1724 17.8906 24.1724 15.5102C24.1724 13.1297 22.2327 11.2 19.8401 11.2C17.4475 11.2 15.5078 13.1297 15.5078 15.5102C15.5078 17.8906 17.4475 19.8203 19.8401 19.8203Z" fill="#898FA7"/>
<path d="M22.0964 21.6162H17.5836C14.9662 21.6162 12.8 23.7714 12.8 26.3754C12.8 27.004 13.0708 27.5428 13.6124 27.8122C14.4247 28.2612 16.2298 28.7998 19.84 28.7998C23.4503 28.7998 25.2554 28.2612 26.0677 27.8122C26.519 27.5428 26.88 27.004 26.88 26.3754C26.88 23.6816 24.7139 21.6162 22.0964 21.6162Z" fill="#898FA7"/>
</g>
</svg>
